<svg width="60" height="60" viewBox="0 0 60 60" fill="none" xmlns="http://www.w3.org/2000/svg">
<path d="M55 27.25V10.25C55 6.5 53.4 5 49.425 5H39.325C35.35 5 33.75 6.5 33.75 10.25V27.25C33.75 31 35.35 32.5 39.325 32.5H49.425C53.4 32.5 55 31 55 27.25Z" fill="#4182F9"/>
<path d="M55 49.75V45.25C55 41.5 53.4 40 49.425 40H39.325C35.35 40 33.75 41.5 33.75 45.25V49.75C33.75 53.5 35.35 55 39.325 55H49.425C53.4 55 55 53.5 55 49.75Z" fill="#4182F9"/>
<path d="M26.25 32.75V49.75C26.25 53.5 24.65 55 20.675 55H10.575C6.6 55 5 53.5 5 49.75V32.75C5 29 6.6 27.5 10.575 27.5H20.675C24.65 27.5 26.25 29 26.25 32.75Z" fill="#4182F9"/>
<path d="M26.25 10.25V14.75C26.25 18.5 24.65 20 20.675 20H10.575C6.6 20 5 18.5 5 14.75V10.25C5 6.5 6.6 5 10.575 5H20.675C24.65 5 26.25 6.5 26.25 10.25Z" fill="#4182F9"/>
</svg>
